<?xml version="1.0" encoding="UTF-8" ?>
<!DOCTYPE svg PUBLIC "-//W3C//DTD SVG 1.1//EN" "http://www.w3.org/Graphics/SVG/1.1/DTD/svg11.dtd">
<svg width="20pt" height="20pt" viewBox="0 0 20 20" version="1.1" xmlns="http://www.w3.org/2000/svg">
<g id="#808080ff">
<path fill="#808080" opacity="1.00" d=" M 1.00 0.00 L 19.00 0.00 C 19.00 6.67 19.00 13.33 19.00 20.00 L 1.00 20.00 C 1.00 13.33 1.00 6.67 1.00 0.00 M 2.00 4.00 C 2.00 9.00 2.00 14.00 2.00 19.00 C 7.33 19.00 12.67 19.00 18.00 19.00 C 18.00 14.00 18.00 9.00 18.00 4.00 C 12.67 4.00 7.33 4.00 2.00 4.00 Z" />
</g>
<g id="#ffffffff">
<path fill="#ffffff" opacity="1.00" d=" M 2.00 4.00 C 7.33 4.00 12.67 4.00 18.00 4.00 C 18.00 9.00 18.00 14.00 18.00 19.00 C 12.67 19.00 7.33 19.00 2.00 19.00 C 2.00 14.00 2.00 9.00 2.00 4.00 M 3.60 11.98 C 4.34 11.99 5.81 11.99 6.55 11.99 C 7.36 11.20 8.17 10.40 8.97 9.59 C 9.01 12.06 9.00 14.53 9.00 17.00 C 9.50 17.00 10.50 17.00 11.00 17.00 C 10.99 14.53 10.99 12.06 11.03 9.59 C 11.83 10.40 12.64 11.20 13.45 11.99 C 14.19 11.99 15.66 11.99 16.40 11.98 C 14.34 9.78 12.19 7.65 10.00 5.57 C 7.81 7.65 5.66 9.78 3.60 11.98 Z" />
</g>
<g id="#4d82b7ff">
<path fill="#4d82b7" opacity="1.00" d=" M 3.60 11.98 C 5.66 9.78 7.81 7.65 10.00 5.57 C 12.19 7.65 14.34 9.78 16.40 11.98 C 15.66 11.99 14.19 11.99 13.45 11.99 C 12.64 11.20 11.83 10.40 11.03 9.59 C 10.99 12.06 10.99 14.53 11.00 17.00 C 10.50 17.00 9.50 17.00 9.00 17.00 C 9.00 14.53 9.01 12.06 8.97 9.59 C 8.17 10.40 7.36 11.20 6.55 11.99 C 5.81 11.99 4.34 11.99 3.60 11.98 Z" />
</g>
</svg>
