<?xml version="1.0" encoding="UTF-8" ?>
<!DOCTYPE svg PUBLIC "-//W3C//DTD SVG 1.1//EN" "http://www.w3.org/Graphics/SVG/1.1/DTD/svg11.dtd">
<svg width="20pt" height="20pt" viewBox="0 0 20 20" version="1.1" xmlns="http://www.w3.org/2000/svg">
<g id="#4d82b8ff">
<path fill="#4d82b8" opacity="1.00" d=" M 3.62 7.01 C 5.65 4.77 7.81 2.65 10.00 0.58 C 12.19 2.65 14.35 4.76 16.37 7.01 C 15.64 7.01 14.16 7.00 13.42 7.00 C 12.63 6.19 11.82 5.39 11.00 4.60 C 10.99 7.40 10.99 10.20 11.00 13.00 C 10.50 13.00 9.50 13.00 9.00 13.00 C 9.01 10.20 9.01 7.40 9.00 4.60 C 8.18 5.39 7.37 6.19 6.58 7.00 C 5.84 7.00 4.36 7.01 3.62 7.01 Z" />
</g>
<g id="#727272ff">
<path fill="#727272" opacity="1.00" d=" M 4.23 16.11 C 4.62 16.11 5.39 16.11 5.77 16.11 L 5.77 16.89 C 5.38 16.89 4.62 16.89 4.23 16.89 L 4.23 16.11 Z" />
<path fill="#727272" opacity="1.00" d=" M 9.23 16.11 C 9.62 16.11 10.38 16.11 10.77 16.11 L 10.77 16.89 C 10.38 16.89 9.62 16.89 9.23 16.89 L 9.23 16.11 Z" />
<path fill="#727272" opacity="1.00" d=" M 14.23 16.11 C 14.62 16.11 15.39 16.11 15.77 16.11 L 15.77 16.89 C 15.38 16.89 14.61 16.89 14.23 16.89 L 14.23 16.11 Z" />
</g>
<g id="#d86140ff">
<path fill="#d86140" opacity="1.00" d=" M 2.00 18.00 C 7.33 18.00 12.67 18.00 18.00 18.00 L 18.00 19.00 C 12.67 19.00 7.34 19.00 2.00 19.00 L 2.00 18.00 Z" />
</g>
</svg>
