<?xml version="1.0" encoding="UTF-8" ?>
<!DOCTYPE svg PUBLIC "-//W3C//DTD SVG 1.1//EN" "http://www.w3.org/Graphics/SVG/1.1/DTD/svg11.dtd">
<svg width="20pt" height="20pt" viewBox="0 0 20 20" version="1.1" xmlns="http://www.w3.org/2000/svg">
<g id="#808080ff">
<path fill="#808080" opacity="1.00" d=" M 1.00 0.00 L 19.00 0.00 C 19.00 6.67 19.00 13.33 19.00 20.00 L 1.00 20.00 C 1.00 13.33 1.00 6.67 1.00 0.00 M 2.00 1.00 C 2.00 6.00 2.00 11.00 2.00 16.00 C 7.33 16.00 12.67 16.00 18.00 16.00 C 18.00 11.00 18.00 6.00 18.00 1.00 C 12.67 1.00 7.33 1.00 2.00 1.00 Z" />
</g>
<g id="#ffffffff">
<path fill="#ffffff" opacity="1.00" d=" M 2.00 1.00 C 7.33 1.00 12.67 1.00 18.00 1.00 C 18.00 6.00 18.00 11.00 18.00 16.00 C 12.67 16.00 7.33 16.00 2.00 16.00 C 2.00 11.00 2.00 6.00 2.00 1.00 M 9.00 3.00 C 9.01 5.47 9.02 7.95 8.97 10.42 C 8.18 9.61 7.39 8.81 6.58 8.02 C 5.83 8.02 4.34 8.01 3.60 8.01 C 5.66 10.22 7.81 12.34 10.00 14.43 C 12.18 12.34 14.34 10.22 16.40 8.01 C 15.66 8.01 14.17 8.02 13.42 8.02 C 12.61 8.81 11.82 9.61 11.03 10.42 C 10.98 7.95 10.99 5.48 11.00 3.00 C 10.50 3.00 9.50 3.00 9.00 3.00 Z" />
</g>
<g id="#4d82b7ff">
<path fill="#4d82b7" opacity="1.00" d=" M 9.00 3.00 C 9.50 3.00 10.50 3.00 11.00 3.00 C 10.99 5.48 10.98 7.95 11.03 10.42 C 11.82 9.61 12.61 8.81 13.42 8.02 C 14.17 8.02 15.66 8.01 16.40 8.01 C 14.34 10.22 12.18 12.34 10.00 14.43 C 7.81 12.34 5.66 10.22 3.60 8.01 C 4.34 8.01 5.83 8.02 6.58 8.02 C 7.39 8.81 8.18 9.61 8.97 10.42 C 9.02 7.95 9.01 5.47 9.00 3.00 Z" />
</g>
</svg>
