<?xml version="1.0" encoding="UTF-8" ?>
<!DOCTYPE svg PUBLIC "-//W3C//DTD SVG 1.1//EN" "http://www.w3.org/Graphics/SVG/1.1/DTD/svg11.dtd">
<svg width="20pt" height="20pt" viewBox="0 0 20 20" version="1.1" xmlns="http://www.w3.org/2000/svg">
<g id="#d86140ff">
<path fill="#d86140" opacity="1.00" d=" M 2.00 1.01 C 7.33 0.99 12.67 0.99 18.00 1.00 L 18.00 1.98 C 12.67 2.01 7.33 2.01 2.00 1.98 L 2.00 1.01 Z" />
</g>
<g id="#727272ff">
<path fill="#727272" opacity="1.00" d=" M 4.25 3.10 C 4.63 3.10 5.38 3.11 5.75 3.11 L 5.75 3.90 C 5.37 3.90 4.62 3.89 4.25 3.89 L 4.25 3.10 Z" />
<path fill="#727272" opacity="1.00" d=" M 9.25 3.11 C 9.62 3.11 10.38 3.11 10.75 3.10 L 10.75 3.89 C 10.38 3.89 9.62 3.89 9.25 3.90 L 9.25 3.11 Z" />
<path fill="#727272" opacity="1.00" d=" M 14.25 3.10 C 14.62 3.11 15.38 3.11 15.75 3.11 L 15.75 3.90 C 15.38 3.89 14.62 3.89 14.25 3.89 L 14.25 3.10 Z" />
</g>
<g id="#4d82b8ff">
<path fill="#4d82b8" opacity="1.00" d=" M 9.02 7.00 C 9.51 7.00 10.49 7.00 10.98 7.00 C 11.00 9.79 11.00 12.58 11.00 15.37 C 11.83 14.59 12.65 13.81 13.47 13.02 C 14.20 13.01 15.67 13.00 16.40 12.99 C 14.35 15.21 12.22 17.35 10.00 19.40 C 7.78 17.35 5.64 15.21 3.60 12.99 C 4.34 13.00 5.80 13.02 6.54 13.03 C 7.35 13.81 8.17 14.59 9.00 15.37 C 9.00 12.58 9.00 9.79 9.02 7.00 Z" />
</g>
</svg>
