<?xml version="1.0" encoding="UTF-8" ?>
<!DOCTYPE svg PUBLIC "-//W3C//DTD SVG 1.1//EN" "http://www.w3.org/Graphics/SVG/1.1/DTD/svg11.dtd">
<svg width="20pt" height="20pt" viewBox="0 0 20 20" version="1.1" xmlns="http://www.w3.org/2000/svg">
<g id="#838383ff">
<path fill="#838383" opacity="1.00" d=" M 8.00 0.00 L 19.00 0.00 C 19.00 2.33 19.02 4.66 18.99 6.99 C 15.33 7.01 11.67 7.01 8.01 6.99 C 7.98 4.66 8.00 2.33 8.00 0.00 M 9.00 1.00 C 9.00 1.50 8.99 2.50 8.99 3.00 C 10.33 3.00 11.66 3.00 13.00 3.00 C 13.00 2.50 13.00 1.50 13.00 1.00 C 11.67 1.00 10.33 1.00 9.00 1.00 M 14.00 1.00 C 14.00 1.50 14.00 2.50 14.00 3.00 C 15.34 3.00 16.67 3.00 18.01 3.00 C 18.01 2.50 18.01 1.50 18.01 1.00 C 16.67 1.00 15.34 1.00 14.00 1.00 M 9.02 4.00 C 9.01 4.50 8.98 5.51 8.97 6.01 C 10.31 6.00 11.66 6.00 13.00 6.00 C 13.00 5.50 13.00 4.50 13.00 4.00 C 11.67 4.00 10.34 4.00 9.02 4.00 M 14.01 4.00 C 14.00 4.50 14.00 5.50 13.99 6.00 C 15.34 6.00 16.69 6.00 18.03 6.01 C 18.02 5.51 18.00 4.50 17.98 4.00 C 16.66 4.00 15.33 4.00 14.01 4.00 Z" />
</g>
<g id="#ffffffff">
<path fill="#ffffff" opacity="1.00" d=" M 9.00 1.00 C 10.33 1.00 11.67 1.00 13.00 1.00 C 13.00 1.50 13.00 2.50 13.00 3.00 C 11.66 3.00 10.33 3.00 8.99 3.00 C 8.99 2.50 9.00 1.50 9.00 1.00 Z" />
<path fill="#ffffff" opacity="1.00" d=" M 14.00 1.00 C 15.34 1.00 16.67 1.00 18.01 1.00 C 18.01 1.50 18.01 2.50 18.01 3.00 C 16.67 3.00 15.34 3.00 14.00 3.00 C 14.00 2.50 14.00 1.50 14.00 1.00 Z" />
<path fill="#ffffff" opacity="1.00" d=" M 9.02 4.00 C 10.34 4.00 11.67 4.00 13.00 4.00 C 13.00 4.50 13.00 5.50 13.00 6.00 C 11.66 6.00 10.31 6.00 8.97 6.01 C 8.98 5.51 9.01 4.50 9.02 4.00 Z" />
<path fill="#ffffff" opacity="1.00" d=" M 14.01 4.00 C 15.33 4.00 16.66 4.00 17.98 4.00 C 18.00 4.50 18.02 5.51 18.03 6.01 C 16.69 6.00 15.34 6.00 13.99 6.00 C 14.00 5.50 14.00 4.50 14.01 4.00 Z" />
<path fill="#ffffff" opacity="1.00" d=" M 8.95 13.97 C 10.30 13.98 11.65 13.99 13.00 13.99 C 13.00 14.49 13.00 15.51 13.00 16.01 C 11.67 16.01 10.35 16.01 9.02 16.01 C 9.00 15.50 8.97 14.48 8.95 13.97 Z" />
<path fill="#ffffff" opacity="1.00" d=" M 14.00 13.99 C 15.35 13.99 16.70 13.98 18.05 13.97 C 18.03 14.48 18.00 15.50 17.98 16.00 C 16.65 16.01 15.33 16.01 14.00 16.01 C 14.00 15.51 14.00 14.49 14.00 13.99 Z" />
<path fill="#ffffff" opacity="1.00" d=" M 8.98 16.99 C 10.32 16.99 11.66 17.00 13.00 17.00 C 13.00 17.50 13.00 18.51 13.00 19.01 C 11.67 19.01 10.33 19.01 9.00 19.01 C 8.99 18.50 8.98 17.50 8.98 16.99 Z" />
<path fill="#ffffff" opacity="1.00" d=" M 14.00 17.00 C 15.34 17.00 16.68 16.99 18.02 16.99 C 18.01 17.49 18.01 18.50 18.01 19.01 C 16.67 19.01 15.34 19.01 14.00 19.01 C 14.00 18.51 14.00 17.50 14.00 17.00 Z" />
</g>
<g id="#d86140ff">
<path fill="#d86140" opacity="1.00" d=" M 0.00 9.42 C 1.71 7.89 3.22 6.13 4.98 4.65 C 5.16 6.29 5.21 7.99 3.66 9.00 C 5.44 8.99 7.22 9.00 9.00 9.02 C 9.00 9.51 9.00 10.49 9.00 10.98 C 7.22 11.00 5.44 11.01 3.66 11.00 C 5.21 12.01 5.16 13.71 4.98 15.35 C 3.21 13.85 1.65 12.12 0.00 10.49 L 0.00 9.42 Z" />
</g>
<g id="#848484ff">
<path fill="#848484" opacity="1.00" d=" M 12.00 8.00 C 14.33 8.00 16.67 8.00 19.00 8.00 C 19.00 9.33 19.00 10.67 19.00 12.00 C 16.67 12.00 14.33 12.00 12.00 12.00 C 12.00 10.67 12.00 9.33 12.00 8.00 M 12.99 8.99 C 12.99 9.50 12.99 10.50 12.99 11.01 C 14.66 11.01 16.33 11.01 18.01 11.01 C 18.01 10.50 18.01 9.50 18.01 8.99 C 16.34 8.99 14.66 8.99 12.99 8.99 Z" />
</g>
<g id="#f4d0c4ff">
<path fill="#f4d0c4" opacity="1.00" d=" M 12.99 8.99 C 14.66 8.99 16.34 8.99 18.01 8.99 C 18.01 9.50 18.01 10.50 18.01 11.01 C 16.33 11.01 14.66 11.01 12.99 11.01 C 12.99 10.50 12.99 9.50 12.99 8.99 Z" />
</g>
<g id="#828282ff">
<path fill="#828282" opacity="1.00" d=" M 8.01 13.01 C 11.67 12.99 15.33 12.99 18.99 13.01 C 19.02 15.34 19.00 17.67 19.00 20.00 L 8.00 20.00 C 8.00 17.67 7.98 15.34 8.01 13.01 M 8.95 13.97 C 8.97 14.48 9.00 15.50 9.02 16.01 C 10.35 16.01 11.67 16.01 13.00 16.01 C 13.00 15.51 13.00 14.49 13.00 13.99 C 11.65 13.99 10.30 13.98 8.95 13.97 M 14.00 13.99 C 14.00 14.49 14.00 15.51 14.00 16.01 C 15.33 16.01 16.65 16.01 17.98 16.00 C 18.00 15.50 18.03 14.48 18.05 13.97 C 16.70 13.98 15.35 13.99 14.00 13.99 M 8.98 16.99 C 8.98 17.50 8.99 18.50 9.00 19.01 C 10.33 19.01 11.67 19.01 13.00 19.01 C 13.00 18.51 13.00 17.50 13.00 17.00 C 11.66 17.00 10.32 16.99 8.98 16.99 M 14.00 17.00 C 14.00 17.50 14.00 18.51 14.00 19.01 C 15.34 19.01 16.67 19.01 18.01 19.01 C 18.01 18.50 18.01 17.49 18.02 16.99 C 16.68 16.99 15.34 17.00 14.00 17.00 Z" />
</g>
</svg>
