<?xml version="1.0" encoding="UTF-8" ?>
<!DOCTYPE svg PUBLIC "-//W3C//DTD SVG 1.1//EN" "http://www.w3.org/Graphics/SVG/1.1/DTD/svg11.dtd">
<svg width="20pt" height="20pt" viewBox="0 0 20 20" version="1.1" xmlns="http://www.w3.org/2000/svg">
<g id="#727272ff">
<path fill="#727272" opacity="1.00" d=" M 6.02 1.99 L 6.98 2.00 C 7.02 7.33 7.02 12.67 6.98 18.00 L 6.02 18.01 C 5.99 12.67 5.99 7.33 6.02 1.99 Z" />
<path fill="#727272" opacity="1.00" d=" M 13.02 2.00 L 13.98 1.99 C 14.01 7.33 14.01 12.67 13.99 18.01 L 13.02 18.00 C 12.98 12.66 12.98 7.33 13.02 2.00 Z" />
<path fill="#727272" opacity="1.00" d=" M 9.03 4.00 C 9.51 4.00 10.49 4.00 10.97 4.00 C 11.03 8.00 11.03 12.00 10.97 16.00 C 10.49 16.00 9.51 16.00 9.03 16.00 C 8.97 12.00 8.97 8.00 9.03 4.00 Z" />
</g>
<g id="#4d82b8ff">
<path fill="#4d82b8" opacity="1.00" d=" M 0.00 4.49 C 1.81 6.32 3.63 8.13 5.39 10.00 C 3.62 11.87 1.80 13.70 0.00 15.54 L 0.00 4.49 Z" />
<path fill="#4d82b8" opacity="1.00" d=" M 14.60 9.99 C 16.38 8.13 18.20 6.31 20.00 4.46 L 20.00 15.49 C 18.16 13.69 16.34 11.88 14.60 9.99 Z" />
</g>
</svg>
