<?xml version="1.0" encoding="UTF-8" ?>
<!DOCTYPE svg PUBLIC "-//W3C//DTD SVG 1.1//EN" "http://www.w3.org/Graphics/SVG/1.1/DTD/svg11.dtd">
<svg width="20pt" height="20pt" viewBox="0 0 20 20" version="1.1" xmlns="http://www.w3.org/2000/svg">
<g id="#727272ff">
<path fill="#727272" opacity="1.00" d=" M 9.00 2.00 C 9.50 2.00 10.50 2.00 11.00 2.00 C 11.00 7.33 11.00 12.67 11.00 18.00 C 10.50 18.00 9.50 18.00 9.00 18.00 C 9.00 12.67 9.00 7.33 9.00 2.00 Z" />
<path fill="#727272" opacity="1.00" d=" M 6.00 4.00 L 7.00 4.00 C 7.00 8.00 7.00 12.00 7.00 16.00 L 6.00 16.00 C 6.00 12.00 6.00 8.00 6.00 4.00 Z" />
<path fill="#727272" opacity="1.00" d=" M 13.00 4.00 L 14.00 4.00 C 14.00 8.00 14.00 12.00 14.00 16.00 L 13.00 16.00 C 13.00 12.00 13.00 8.00 13.00 4.00 Z" />
</g>
<g id="#4d82b8ff">
<path fill="#4d82b8" opacity="1.00" d=" M 0.00 9.42 C 1.75 7.92 3.18 6.09 4.99 4.67 C 5.01 8.22 5.01 11.78 4.99 15.33 C 3.18 13.88 1.67 12.09 0.00 10.49 L 0.00 9.42 Z" />
<path fill="#4d82b8" opacity="1.00" d=" M 15.01 4.67 C 16.82 6.12 18.33 7.91 20.00 9.51 L 20.00 10.58 C 18.25 12.08 16.82 13.91 15.01 15.33 C 14.99 11.78 14.99 8.22 15.01 4.67 Z" />
</g>
</svg>
