<?xml version="1.0" encoding="UTF-8" ?>
<!DOCTYPE svg PUBLIC "-//W3C//DTD SVG 1.1//EN" "http://www.w3.org/Graphics/SVG/1.1/DTD/svg11.dtd">
<svg width="20pt" height="20pt" viewBox="0 0 20 20" version="1.1" xmlns="http://www.w3.org/2000/svg">
<g id="#d86140ff">
<path fill="#d86140" opacity="1.00" d=" M 6.96 0.00 L 13.01 0.00 C 13.00 0.50 13.00 1.50 12.99 2.00 C 11.00 2.00 9.02 2.00 7.03 2.00 C 7.01 1.50 6.98 0.50 6.96 0.00 Z" />
<path fill="#d86140" opacity="1.00" d=" M 3.29 1.01 C 3.96 1.01 5.32 1.00 5.99 0.99 C 6.00 1.49 6.00 2.50 6.01 3.00 C 8.67 3.00 11.33 3.00 13.99 3.00 C 14.00 2.50 14.00 1.49 14.01 0.99 C 14.68 1.00 16.04 1.01 16.71 1.01 C 17.56 2.01 18.46 2.96 19.25 4.00 C 13.08 4.00 6.92 4.00 0.75 4.00 C 1.54 2.96 2.44 2.01 3.29 1.01 Z" />
</g>
<g id="#808080ff">
<path fill="#808080" opacity="1.00" d=" M 1.00 5.00 L 1.99 5.00 C 2.00 9.56 2.00 14.11 2.01 18.67 C 7.34 18.66 12.66 18.66 17.99 18.67 C 18.00 14.11 18.00 9.56 18.01 5.00 L 19.00 5.00 C 19.00 10.00 19.00 15.00 19.00 20.00 L 1.00 20.00 C 1.00 15.00 1.00 10.00 1.00 5.00 Z" />
<path fill="#808080" opacity="1.00" d=" M 5.00 7.00 C 8.39 7.00 11.79 6.99 15.18 7.02 C 14.42 10.52 10.59 12.20 8.59 15.01 C 7.87 15.00 6.42 14.99 5.69 14.98 C 7.45 12.89 9.55 11.11 11.31 9.02 C 9.21 8.99 7.10 8.99 5.00 8.99 C 5.00 8.50 5.00 7.50 5.00 7.00 Z" />
</g>
<g id="#ffffffff">
<path fill="#ffffff" opacity="1.00" d=" M 1.99 5.00 C 7.33 5.00 12.67 5.00 18.01 5.00 C 18.00 9.56 18.00 14.11 17.99 18.67 C 12.66 18.66 7.34 18.66 2.01 18.67 C 2.00 14.11 2.00 9.56 1.99 5.00 M 5.00 7.00 C 5.00 7.50 5.00 8.50 5.00 8.99 C 7.10 8.99 9.21 8.99 11.31 9.02 C 9.55 11.11 7.45 12.89 5.69 14.98 C 6.42 14.99 7.87 15.00 8.59 15.01 C 10.59 12.20 14.42 10.52 15.18 7.02 C 11.79 6.99 8.39 7.00 5.00 7.00 Z" />
</g>
</svg>
