<?xml version="1.0" encoding="UTF-8" ?>
<!DOCTYPE svg PUBLIC "-//W3C//DTD SVG 1.1//EN" "http://www.w3.org/Graphics/SVG/1.1/DTD/svg11.dtd">
<svg width="20pt" height="20pt" viewBox="0 0 20 20" version="1.1" xmlns="http://www.w3.org/2000/svg">
<g id="#808080ff">
<path fill="#808080" opacity="1.00" d=" M 0.00 0.00 L 20.00 0.00 L 20.00 19.00 C 13.33 19.00 6.67 19.00 0.00 19.00 L 0.00 0.00 M 1.12 1.16 C 1.12 1.58 1.12 2.42 1.12 2.84 L 1.88 2.84 C 1.88 2.42 1.88 1.58 1.88 1.16 L 1.12 1.16 M 3.00 1.00 C 3.00 1.50 3.00 2.50 3.00 3.00 C 7.00 3.00 11.00 3.00 15.00 3.00 L 15.00 4.00 C 11.00 4.00 7.00 4.00 3.00 4.00 C 3.00 8.00 3.00 12.00 3.00 16.00 C 7.67 16.00 12.33 16.00 17.00 16.00 C 17.00 13.25 17.00 7.75 17.00 5.00 L 18.00 5.00 C 18.00 7.75 18.00 13.25 18.00 16.00 L 19.00 16.00 C 19.00 12.00 19.00 8.00 19.00 4.00 C 18.25 4.00 16.75 4.00 16.00 4.00 C 16.00 3.25 16.00 1.75 16.00 1.00 C 11.67 1.00 7.33 1.00 3.00 1.00 M 1.00 4.00 C 1.00 8.00 1.00 12.00 1.00 16.00 L 2.00 16.00 C 2.00 12.00 2.00 8.00 2.00 4.00 L 1.00 4.00 M 3.00 17.00 L 3.00 18.00 C 7.67 18.00 12.33 18.00 17.00 18.00 L 17.00 17.00 C 12.33 17.00 7.67 17.00 3.00 17.00 Z" />
</g>
<g id="#ffffffff">
<path fill="#ffffff" opacity="1.00" d=" M 1.12 1.16 L 1.88 1.16 C 1.88 1.58 1.88 2.42 1.88 2.84 L 1.12 2.84 C 1.12 2.42 1.12 1.58 1.12 1.16 Z" />
<path fill="#ffffff" opacity="1.00" d=" M 3.00 1.00 C 7.33 1.00 11.67 1.00 16.00 1.00 C 16.00 1.75 16.00 3.25 16.00 4.00 C 16.75 4.00 18.25 4.00 19.00 4.00 C 19.00 8.00 19.00 12.00 19.00 16.00 L 18.00 16.00 C 18.00 13.25 18.00 7.75 18.00 5.00 L 17.00 5.00 C 17.00 7.75 17.00 13.25 17.00 16.00 C 12.33 16.00 7.67 16.00 3.00 16.00 C 3.00 12.00 3.00 8.00 3.00 4.00 C 7.00 4.00 11.00 4.00 15.00 4.00 L 15.00 3.00 C 11.00 3.00 7.00 3.00 3.00 3.00 C 3.00 2.50 3.00 1.50 3.00 1.00 M 4.00 5.00 C 4.00 7.50 4.00 12.50 4.00 15.00 C 4.75 15.00 6.25 15.00 7.00 15.00 C 7.00 12.50 7.00 7.50 7.00 5.00 C 6.25 5.00 4.75 5.00 4.00 5.00 M 8.00 5.00 C 8.00 6.33 8.00 7.67 8.00 9.00 C 10.67 9.00 13.33 9.00 16.00 9.00 C 16.00 7.67 16.00 6.33 16.00 5.00 C 13.33 5.00 10.67 5.00 8.00 5.00 M 8.00 10.00 C 8.00 11.67 8.00 13.33 8.00 15.00 C 8.50 15.00 9.50 15.00 10.00 15.00 C 10.00 13.33 10.00 11.67 10.00 10.00 C 9.50 10.00 8.50 10.00 8.00 10.00 M 11.00 10.00 L 11.00 15.00 L 16.00 15.00 L 16.00 10.00 L 11.00 10.00 Z" />
<path fill="#ffffff" opacity="1.00" d=" M 1.00 4.00 L 2.00 4.00 C 2.00 8.00 2.00 12.00 2.00 16.00 L 1.00 16.00 C 1.00 12.00 1.00 8.00 1.00 4.00 Z" />
<path fill="#ffffff" opacity="1.00" d=" M 3.00 17.00 C 7.67 17.00 12.33 17.00 17.00 17.00 L 17.00 18.00 C 12.33 18.00 7.67 18.00 3.00 18.00 L 3.00 17.00 Z" />
</g>
<g id="#4d82b8ff">
<path fill="#4d82b8" opacity="1.00" d=" M 4.00 5.00 C 4.75 5.00 6.25 5.00 7.00 5.00 C 7.00 7.50 7.00 12.50 7.00 15.00 C 6.25 15.00 4.75 15.00 4.00 15.00 C 4.00 12.50 4.00 7.50 4.00 5.00 Z" />
<path fill="#4d82b8" opacity="1.00" d=" M 8.00 5.00 C 10.67 5.00 13.33 5.00 16.00 5.00 C 16.00 6.33 16.00 7.67 16.00 9.00 C 13.33 9.00 10.67 9.00 8.00 9.00 C 8.00 7.67 8.00 6.33 8.00 5.00 Z" />
<path fill="#4d82b8" opacity="1.00" d=" M 8.00 10.00 C 8.50 10.00 9.50 10.00 10.00 10.00 C 10.00 11.67 10.00 13.33 10.00 15.00 C 9.50 15.00 8.50 15.00 8.00 15.00 C 8.00 13.33 8.00 11.67 8.00 10.00 Z" />
<path fill="#4d82b8" opacity="1.00" d=" M 11.00 10.00 L 16.00 10.00 L 16.00 15.00 L 11.00 15.00 L 11.00 10.00 Z" />
</g>
</svg>
