<?xml version="1.0" encoding="UTF-8" ?>
<!DOCTYPE svg PUBLIC "-//W3C//DTD SVG 1.1//EN" "http://www.w3.org/Graphics/SVG/1.1/DTD/svg11.dtd">
<svg width="20pt" height="20pt" viewBox="0 0 20 20" version="1.1" xmlns="http://www.w3.org/2000/svg">
<g id="#4d82b8ff">
<path fill="#4d82b8" opacity="1.00" d=" M 0.00 3.00 C 6.33 3.00 12.67 3.00 19.00 3.00 C 19.00 5.00 19.00 7.00 19.00 9.00 C 18.25 9.00 16.76 9.00 16.02 9.00 C 16.01 8.25 15.99 6.75 15.98 6.00 C 14.33 6.00 12.67 6.00 11.02 6.00 C 11.01 6.75 10.99 8.25 10.98 9.00 C 7.32 9.00 3.66 9.00 0.00 9.00 L 0.00 3.00 Z" />
</g>
<g id="#76a797ff">
<path fill="#76a797" opacity="1.00" d=" M 12.00 7.00 C 12.75 7.00 14.25 7.00 15.00 7.00 C 15.00 8.33 15.00 9.67 15.00 11.00 C 16.33 11.00 17.67 11.00 19.00 11.00 C 19.00 11.75 19.00 13.25 19.00 14.00 C 17.67 14.00 16.33 14.00 15.00 14.00 C 15.00 15.33 15.00 16.67 15.00 18.00 C 14.25 18.00 12.75 18.00 12.00 18.00 C 12.00 16.67 12.00 15.33 12.00 14.00 C 10.67 14.00 9.33 14.00 8.00 14.00 C 8.00 13.25 8.00 11.75 8.00 11.00 C 9.33 11.00 10.67 11.00 12.00 11.00 C 12.00 9.67 12.00 8.33 12.00 7.00 Z" />
</g>
</svg>
