<?xml version="1.0" encoding="UTF-8" ?>
<!DOCTYPE svg PUBLIC "-//W3C//DTD SVG 1.1//EN" "http://www.w3.org/Graphics/SVG/1.1/DTD/svg11.dtd">
<svg width="20pt" height="20pt" viewBox="0 0 20 20" version="1.1" xmlns="http://www.w3.org/2000/svg">
<g id="#4d82b8ff">
<path fill="#4d82b8" opacity="1.00" d=" M 9.46 0.00 L 9.67 0.00 C 11.47 2.10 13.54 3.94 15.40 5.99 C 13.94 6.00 12.47 6.01 11.01 6.01 C 11.00 7.33 11.00 8.66 10.99 9.98 C 9.66 9.99 8.33 10.01 7.00 10.02 C 6.99 11.67 6.99 13.32 7.00 14.97 C 7.75 14.98 9.25 15.02 10.00 15.03 C 10.01 16.49 10.00 17.94 9.99 19.40 C 6.58 16.20 3.37 12.79 0.00 9.54 L 0.00 9.33 C 3.31 6.38 6.32 3.12 9.46 0.00 Z" />
</g>
<g id="#76a797ff">
<path fill="#76a797" opacity="1.00" d=" M 12.00 7.00 C 12.75 7.00 14.25 7.00 15.00 7.00 C 15.00 8.33 15.00 9.67 15.00 11.00 C 16.33 11.00 17.67 11.00 19.00 11.00 C 19.00 11.75 19.00 13.25 19.00 14.00 C 17.67 14.00 16.33 14.00 15.00 14.00 C 15.00 15.33 15.00 16.67 15.00 18.00 C 14.25 18.00 12.75 18.00 12.00 18.00 C 12.00 16.67 12.00 15.33 12.00 14.00 C 10.67 14.00 9.33 14.00 8.00 14.00 C 8.00 13.25 8.00 11.75 8.00 11.00 C 9.33 11.00 10.67 11.00 12.00 11.00 C 12.00 9.67 12.00 8.33 12.00 7.00 Z" />
</g>
</svg>
