<?xml version="1.0" encoding="UTF-8" ?>
<!DOCTYPE svg PUBLIC "-//W3C//DTD SVG 1.1//EN" "http://www.w3.org/Graphics/SVG/1.1/DTD/svg11.dtd">
<svg width="20pt" height="20pt" viewBox="0 0 20 20" version="1.1" xmlns="http://www.w3.org/2000/svg">
<g id="#828282ff">
<path fill="#828282" opacity="1.00" d=" M 1.00 0.00 L 12.00 0.00 C 12.00 2.33 12.00 4.67 12.00 7.00 C 8.33 7.00 4.67 7.00 1.00 7.00 C 1.00 4.67 1.00 2.33 1.00 0.00 M 1.98 0.98 C 1.98 1.49 1.98 2.50 1.98 3.01 C 3.32 3.00 4.66 3.00 6.00 3.00 C 6.00 2.50 6.00 1.49 6.00 0.98 C 4.66 0.98 3.32 0.98 1.98 0.98 M 7.00 0.98 C 7.00 1.49 7.00 2.50 7.00 3.00 C 8.34 3.00 9.68 3.00 11.02 3.01 C 11.02 2.50 11.02 1.49 11.02 0.98 C 9.68 0.98 8.34 0.98 7.00 0.98 M 2.00 3.99 C 1.99 4.50 1.97 5.51 1.96 6.02 C 3.31 6.02 4.65 6.01 6.00 6.01 C 6.00 5.51 6.00 4.49 6.00 3.99 C 4.67 3.99 3.34 3.99 2.00 3.99 M 7.00 3.99 C 7.00 4.49 7.00 5.51 7.00 6.01 C 8.35 6.02 9.69 6.02 11.04 6.02 C 11.03 5.51 11.00 4.50 10.99 3.99 C 9.66 3.99 8.33 3.99 7.00 3.99 Z" />
<path fill="#828282" opacity="1.00" d=" M 1.00 13.00 C 4.67 13.00 8.33 13.00 12.00 13.00 C 12.00 15.33 12.00 17.67 12.00 20.00 L 1.00 20.00 C 1.00 17.67 1.00 15.33 1.00 13.00 M 1.96 13.98 C 1.97 14.48 1.99 15.49 2.01 16.00 C 3.34 16.01 4.67 16.01 6.00 16.02 C 6.00 15.51 6.00 14.49 6.00 13.99 C 4.65 13.98 3.31 13.98 1.96 13.98 M 7.00 13.99 C 7.00 14.49 7.00 15.51 7.00 16.02 C 8.33 16.01 9.66 16.00 10.99 16.00 C 11.00 15.49 11.03 14.48 11.04 13.98 C 9.69 13.98 8.35 13.98 7.00 13.99 M 1.98 16.98 C 1.98 17.49 1.98 18.50 1.98 19.01 C 3.32 19.01 4.66 19.01 6.00 19.01 C 6.00 18.51 6.00 17.50 6.00 17.00 C 4.66 17.00 3.32 16.99 1.98 16.98 M 7.00 17.00 C 7.00 17.50 7.00 18.51 7.00 19.01 C 8.34 19.01 9.68 19.01 11.02 19.01 C 11.02 18.50 11.02 17.49 11.02 16.98 C 9.68 16.99 8.34 16.99 7.00 17.00 Z" />
</g>
<g id="#ffffffff">
<path fill="#ffffff" opacity="1.00" d=" M 1.98 0.98 C 3.32 0.98 4.66 0.98 6.00 0.98 C 6.00 1.49 6.00 2.50 6.00 3.00 C 4.66 3.00 3.32 3.00 1.98 3.01 C 1.98 2.50 1.98 1.49 1.98 0.98 Z" />
<path fill="#ffffff" opacity="1.00" d=" M 7.00 0.98 C 8.34 0.98 9.68 0.98 11.02 0.98 C 11.02 1.49 11.02 2.50 11.02 3.01 C 9.68 3.00 8.34 3.00 7.00 3.00 C 7.00 2.50 7.00 1.49 7.00 0.98 Z" />
<path fill="#ffffff" opacity="1.00" d=" M 2.00 3.99 C 3.34 3.99 4.67 3.99 6.00 3.99 C 6.00 4.49 6.00 5.51 6.00 6.01 C 4.65 6.01 3.31 6.02 1.96 6.02 C 1.97 5.51 1.99 4.50 2.00 3.99 Z" />
<path fill="#ffffff" opacity="1.00" d=" M 7.00 3.99 C 8.33 3.99 9.66 3.99 10.99 3.99 C 11.00 4.50 11.03 5.51 11.04 6.02 C 9.69 6.02 8.35 6.02 7.00 6.01 C 7.00 5.51 7.00 4.49 7.00 3.99 Z" />
<path fill="#ffffff" opacity="1.00" d=" M 1.96 13.98 C 3.31 13.98 4.65 13.98 6.00 13.99 C 6.00 14.49 6.00 15.51 6.00 16.02 C 4.67 16.01 3.34 16.01 2.01 16.00 C 1.99 15.49 1.97 14.48 1.96 13.98 Z" />
<path fill="#ffffff" opacity="1.00" d=" M 7.00 13.99 C 8.35 13.98 9.69 13.98 11.04 13.98 C 11.03 14.48 11.00 15.49 10.99 16.00 C 9.66 16.00 8.33 16.01 7.00 16.02 C 7.00 15.51 7.00 14.49 7.00 13.99 Z" />
<path fill="#ffffff" opacity="1.00" d=" M 1.98 16.98 C 3.32 16.99 4.66 17.00 6.00 17.00 C 6.00 17.50 6.00 18.51 6.00 19.01 C 4.66 19.01 3.32 19.01 1.98 19.01 C 1.98 18.50 1.98 17.49 1.98 16.98 Z" />
<path fill="#ffffff" opacity="1.00" d=" M 7.00 17.00 C 8.34 16.99 9.68 16.99 11.02 16.98 C 11.02 17.49 11.02 18.50 11.02 19.01 C 9.68 19.01 8.34 19.01 7.00 19.01 C 7.00 18.51 7.00 17.50 7.00 17.00 Z" />
</g>
<g id="#4d82b8ff">
<path fill="#4d82b8" opacity="1.00" d=" M 15.02 4.71 C 16.85 6.13 18.34 7.91 20.00 9.51 L 20.00 10.60 C 18.25 12.07 16.84 13.91 15.02 15.29 C 14.85 13.70 14.80 12.01 16.28 11.02 C 14.52 11.01 12.76 10.98 11.00 10.99 C 11.00 10.50 11.00 9.50 11.00 9.01 C 12.76 9.02 14.52 8.99 16.28 8.98 C 14.80 7.98 14.85 6.30 15.02 4.71 Z" />
</g>
<g id="#848484ff">
<path fill="#848484" opacity="1.00" d=" M 1.00 8.00 C 3.33 8.01 5.67 8.01 8.00 8.00 C 8.00 9.33 8.00 10.67 8.00 12.00 C 5.67 11.99 3.33 11.99 1.00 12.00 C 1.00 10.67 1.00 9.33 1.00 8.00 M 1.98 8.97 C 1.98 9.48 1.98 10.51 1.98 11.03 C 3.66 11.02 5.34 11.02 7.02 11.03 C 7.02 10.51 7.02 9.49 7.02 8.97 C 5.34 8.98 3.66 8.98 1.98 8.97 Z" />
</g>
<g id="#c1d3e6ff">
<path fill="#c1d3e6" opacity="1.00" d=" M 1.98 8.97 C 3.66 8.98 5.34 8.98 7.02 8.97 C 7.02 9.49 7.02 10.51 7.02 11.03 C 5.34 11.02 3.66 11.02 1.98 11.03 C 1.98 10.51 1.98 9.48 1.98 8.97 Z" />
</g>
</svg>
