<?xml version="1.0" encoding="UTF-8" ?>
<!DOCTYPE svg PUBLIC "-//W3C//DTD SVG 1.1//EN" "http://www.w3.org/Graphics/SVG/1.1/DTD/svg11.dtd">
<svg width="20pt" height="20pt" viewBox="0 0 20 20" version="1.1" xmlns="http://www.w3.org/2000/svg">
<g id="#4d82b8ff">
<path fill="#4d82b8" opacity="1.00" d=" M 4.45 0.00 L 15.52 0.00 C 13.65 1.78 11.86 3.63 10.00 5.43 C 8.14 3.63 6.34 1.77 4.45 0.00 Z" />
<path fill="#4d82b8" opacity="1.00" d=" M 4.48 20.00 C 6.30 18.27 8.05 16.46 9.85 14.71 C 11.82 16.41 13.69 18.22 15.58 20.00 L 4.48 20.00 Z" />
</g>
<g id="#727272ff">
<path fill="#727272" opacity="1.00" d=" M 1.99 6.01 C 7.33 5.99 12.66 5.99 18.00 6.01 L 18.01 6.99 C 12.67 7.01 7.33 7.01 1.99 6.99 L 1.99 6.01 Z" />
<path fill="#727272" opacity="1.00" d=" M 4.00 9.02 C 8.00 8.98 12.00 8.98 16.00 9.02 C 16.00 9.51 16.00 10.49 16.00 10.98 C 12.00 11.02 8.00 11.02 4.00 10.98 C 4.00 10.49 4.00 9.51 4.00 9.02 Z" />
<path fill="#727272" opacity="1.00" d=" M 1.99 13.01 C 7.33 12.99 12.67 12.99 18.01 13.01 L 18.00 13.99 C 12.67 14.01 7.33 14.01 1.99 13.99 L 1.99 13.01 Z" />
</g>
</svg>
