<?xml version="1.0" encoding="UTF-8" ?>
<!DOCTYPE svg PUBLIC "-//W3C//DTD SVG 1.1//EN" "http://www.w3.org/Graphics/SVG/1.1/DTD/svg11.dtd">
<svg width="20pt" height="20pt" viewBox="0 0 20 20" version="1.1" xmlns="http://www.w3.org/2000/svg">
<g id="#4d82b8ff">
<path fill="#4d82b8" opacity="1.00" d=" M 9.51 0.00 L 10.55 0.00 C 12.17 1.65 13.83 3.26 15.37 4.99 C 11.79 5.02 8.21 5.02 4.62 4.99 C 6.18 3.25 7.84 1.62 9.51 0.00 Z" />
<path fill="#4d82b8" opacity="1.00" d=" M 4.63 15.01 C 8.21 14.98 11.79 14.98 15.38 15.01 C 13.82 16.75 12.16 18.38 10.49 20.00 L 9.45 20.00 C 7.83 18.35 6.17 16.74 4.63 15.01 Z" />
</g>
<g id="#727272ff">
<path fill="#727272" opacity="1.00" d=" M 4.00 6.03 C 8.00 5.98 12.00 5.98 16.00 6.03 L 16.01 6.97 C 12.01 7.03 8.01 7.03 4.01 6.97 L 4.00 6.03 Z" />
<path fill="#727272" opacity="1.00" d=" M 2.00 9.05 C 7.33 8.96 12.67 8.96 18.00 9.05 C 18.00 9.52 18.00 10.47 18.00 10.95 C 12.67 11.06 7.33 11.04 2.00 10.95 C 2.00 10.47 2.00 9.53 2.00 9.05 Z" />
<path fill="#727272" opacity="1.00" d=" M 4.01 13.03 C 8.01 12.97 12.01 12.95 16.01 13.03 L 15.99 13.97 C 12.00 14.02 8.00 14.02 4.01 13.97 L 4.01 13.03 Z" />
</g>
</svg>
